<svg xmlns="http://www.w3.org/2000/svg" width="600" height="600" viewBox="0 0 600 600"><defs><radialGradient id="glow"><stop offset="0%" stop-color="white" stop-opacity="0.9"/><stop offset="100%" stop-color="white" stop-opacity="0"/></radialGradient></defs><circle cx="283.0" cy="157.7" r="5.75" fill="url(#glow)" opacity="0.40"/><circle cx="283.0" cy="157.7" r="1.22" fill="white" opacity="0.40"/><circle cx="37.5" cy="123.6" r="2.57" fill="url(#glow)" opacity="0.49"/><circle cx="37.5" cy="123.6" r="0.54" fill="white" opacity="0.49"/><circle cx="454.6" cy="328.1" r="5.52" fill="url(#glow)" opacity="0.38"/><circle cx="454.6" cy="328.1" r="1.40" fill="white" opacity="0.38"/><circle cx="21.4" cy="466.7" r="5.48" fill="url(#glow)" opacity="0.43"/><circle cx="21.4" cy="466.7" r="1.29" fill="white" opacity="0.43"/><circle cx="358.8" cy="236.9" r="3.23" fill="url(#glow)" opacity="0.51"/><circle cx="358.8" cy="236.9" r="0.69" fill="white" opacity="0.51"/><circle cx="60.5" cy="331.5" r="2.33" fill="url(#glow)" opacity="0.21"/><circle cx="60.5" cy="331.5" r="0.54" fill="white" opacity="0.21"/><circle cx="405.6" cy="175.5" r="3.23" fill="url(#glow)" opacity="0.20"/><circle cx="405.6" cy="175.5" r="0.72" fill="white" opacity="0.20"/><circle cx="553.0" cy="574.4" r="5.62" fill="url(#glow)" opacity="0.22"/><circle cx="553.0" cy="574.4" r="1.23" fill="white" opacity="0.22"/><circle cx="320.0" cy="343.9" r="5.89" fill="url(#glow)" opacity="0.35"/><circle cx="320.0" cy="343.9" r="1.46" fill="white" opacity="0.35"/><circle cx="419.9" cy="359.3" r="2.84" fill="url(#glow)" opacity="0.29"/><circle cx="419.9" cy="359.3" r="0.75" fill="white" opacity="0.29"/><circle cx="539.4" cy="510.9" r="3.65" fill="url(#glow)" opacity="0.31"/><circle cx="539.4" cy="510.9" r="0.88" fill="white" opacity="0.31"/><circle cx="437.1" cy="457.8" r="3.21" fill="url(#glow)" opacity="0.25"/><circle cx="437.1" cy="457.8" r="1.01" fill="white" opacity="0.25"/><circle cx="349.2" cy="293.8" r="6.34" fill="url(#glow)" opacity="0.55"/><circle cx="349.2" cy="293.8" r="1.27" fill="white" opacity="0.55"/><circle cx="344.2" cy="42.0" r="3.73" fill="url(#glow)" opacity="0.49"/><circle cx="344.2" cy="42.0" r="1.10" fill="white" opacity="0.49"/><circle cx="579.9" cy="478.8" r="2.67" fill="url(#glow)" opacity="0.21"/><circle cx="579.9" cy="478.8" r="0.55" fill="white" opacity="0.21"/><circle cx="85.4" cy="125.9" r="2.08" fill="url(#glow)" opacity="0.51"/><circle cx="85.4" cy="125.9" r="0.51" fill="white" opacity="0.51"/><circle cx="221.6" cy="599.6" r="2.51" fill="url(#glow)" opacity="0.32"/><circle cx="221.6" cy="599.6" r="0.75" fill="white" opacity="0.32"/><circle cx="300.4" cy="345.6" r="4.68" fill="url(#glow)" opacity="0.51"/><circle cx="300.4" cy="345.6" r="1.31" fill="white" opacity="0.51"/><circle cx="279.9" cy="380.9" r="4.33" fill="url(#glow)" opacity="0.38"/><circle cx="279.9" cy="380.9" r="1.14" fill="white" opacity="0.38"/><circle cx="592.2" cy="38.8" r="7.63" fill="url(#glow)" opacity="0.20"/><circle cx="592.2" cy="38.8" r="1.53" fill="white" opacity="0.20"/><circle cx="131.7" cy="375.5" r="4.70" fill="url(#glow)" opacity="0.43"/><circle cx="131.7" cy="375.5" r="1.15" fill="white" opacity="0.43"/><circle cx="206.3" cy="208.0" r="1.69" fill="url(#glow)" opacity="0.45"/><circle cx="206.3" cy="208.0" r="0.52" fill="white" opacity="0.45"/><circle cx="521.0" cy="554.8" r="7.06" fill="url(#glow)" opacity="0.50"/><circle cx="521.0" cy="554.8" r="1.42" fill="white" opacity="0.50"/><circle cx="15.9" cy="470.3" r="4.14" fill="url(#glow)" opacity="0.24"/><circle cx="15.9" cy="470.3" r="1.31" fill="white" opacity="0.24"/><circle cx="327.2" cy="301.3" r="4.70" fill="url(#glow)" opacity="0.30"/><circle cx="327.2" cy="301.3" r="1.36" fill="white" opacity="0.30"/><circle cx="23.0" cy="422.1" r="3.18" fill="url(#glow)" opacity="0.36"/><circle cx="23.0" cy="422.1" r="1.02" fill="white" opacity="0.36"/><circle cx="20.2" cy="155.4" r="5.57" fill="url(#glow)" opacity="0.25"/><circle cx="20.2" cy="155.4" r="1.17" fill="white" opacity="0.25"/><circle cx="363.0" cy="444.0" r="2.54" fill="url(#glow)" opacity="0.32"/><circle cx="363.0" cy="444.0" r="0.52" fill="white" opacity="0.32"/><circle cx="151.3" cy="506.4" r="2.88" fill="url(#glow)" opacity="0.44"/><circle cx="151.3" cy="506.4" r="0.85" fill="white" opacity="0.44"/><circle cx="373.4" cy="273.9" r="2.94" fill="url(#glow)" opacity="0.25"/><circle cx="373.4" cy="273.9" r="0.69" fill="white" opacity="0.25"/><circle cx="526.1" cy="578.2" r="7.56" fill="url(#glow)" opacity="0.47"/><circle cx="526.1" cy="578.2" r="1.52" fill="white" opacity="0.47"/><circle cx="221.1" cy="157.3" r="5.08" fill="url(#glow)" opacity="0.22"/><circle cx="221.1" cy="157.3" r="1.11" fill="white" opacity="0.22"/><circle cx="154.6" cy="35.4" r="1.82" fill="url(#glow)" opacity="0.39"/><circle cx="154.6" cy="35.4" r="0.59" fill="white" opacity="0.39"/><circle cx="361.0" cy="71.9" r="4.21" fill="url(#glow)" opacity="0.51"/><circle cx="361.0" cy="71.9" r="1.39" fill="white" opacity="0.51"/><circle cx="592.0" cy="14.9" r="5.94" fill="url(#glow)" opacity="0.28"/><circle cx="592.0" cy="14.9" r="1.56" fill="white" opacity="0.28"/><circle cx="327.4" cy="301.2" r="2.71" fill="url(#glow)" opacity="0.42"/><circle cx="327.4" cy="301.2" r="0.63" fill="white" opacity="0.42"/><circle cx="347.6" cy="419.3" r="6.21" fill="url(#glow)" opacity="0.51"/><circle cx="347.6" cy="419.3" r="1.57" fill="white" opacity="0.51"/><circle cx="162.4" cy="472.5" r="6.61" fill="url(#glow)" opacity="0.47"/><circle cx="162.4" cy="472.5" r="1.56" fill="white" opacity="0.47"/><circle cx="57.8" cy="443.4" r="3.08" fill="url(#glow)" opacity="0.22"/><circle cx="57.8" cy="443.4" r="0.74" fill="white" opacity="0.22"/><circle cx="274.6" cy="566.8" r="3.24" fill="url(#glow)" opacity="0.51"/><circle cx="274.6" cy="566.8" r="0.80" fill="white" opacity="0.51"/><circle cx="10.8" cy="403.3" r="3.64" fill="url(#glow)" opacity="0.38"/><circle cx="10.8" cy="403.3" r="0.77" fill="white" opacity="0.38"/><circle cx="362.4" cy="283.1" r="2.74" fill="url(#glow)" opacity="0.55"/><circle cx="362.4" cy="283.1" r="0.81" fill="white" opacity="0.55"/><circle cx="320.6" cy="282.0" r="2.38" fill="url(#glow)" opacity="0.51"/><circle cx="320.6" cy="282.0" r="0.51" fill="white" opacity="0.51"/><circle cx="415.6" cy="267.3" r="5.11" fill="url(#glow)" opacity="0.37"/><circle cx="415.6" cy="267.3" r="1.16" fill="white" opacity="0.37"/><circle cx="25.7" cy="315.9" r="3.24" fill="url(#glow)" opacity="0.46"/><circle cx="25.7" cy="315.9" r="0.69" fill="white" opacity="0.46"/><circle cx="503.1" cy="499.7" r="3.29" fill="url(#glow)" opacity="0.53"/><circle cx="503.1" cy="499.7" r="1.09" fill="white" opacity="0.53"/><circle cx="31.0" cy="553.1" r="4.03" fill="url(#glow)" opacity="0.26"/><circle cx="31.0" cy="553.1" r="0.89" fill="white" opacity="0.26"/><circle cx="576.6" cy="172.3" r="2.78" fill="url(#glow)" opacity="0.52"/><circle cx="576.6" cy="172.3" r="0.75" fill="white" opacity="0.52"/><circle cx="495.8" cy="561.7" r="6.17" fill="url(#glow)" opacity="0.52"/><circle cx="495.8" cy="561.7" r="1.25" fill="white" opacity="0.52"/><circle cx="9.9" cy="509.3" r="5.69" fill="url(#glow)" opacity="0.41"/><circle cx="9.9" cy="509.3" r="1.20" fill="white" opacity="0.41"/><circle cx="276.5" cy="342.4" r="4.47" fill="url(#glow)" opacity="0.32"/><circle cx="276.5" cy="342.4" r="1.04" fill="white" opacity="0.32"/><circle cx="586.9" cy="167.4" r="5.20" fill="url(#glow)" opacity="0.22"/><circle cx="586.9" cy="167.4" r="1.07" fill="white" opacity="0.22"/><circle cx="561.7" cy="158.8" r="2.63" fill="url(#glow)" opacity="0.50"/><circle cx="561.7" cy="158.8" r="0.71" fill="white" opacity="0.50"/><circle cx="595.4" cy="397.6" r="5.25" fill="url(#glow)" opacity="0.22"/><circle cx="595.4" cy="397.6" r="1.28" fill="white" opacity="0.22"/><circle cx="466.5" cy="324.9" r="4.93" fill="url(#glow)" opacity="0.50"/><circle cx="466.5" cy="324.9" r="1.17" fill="white" opacity="0.50"/><circle cx="279.8" cy="545.2" r="2.62" fill="url(#glow)" opacity="0.43"/><circle cx="279.8" cy="545.2" r="0.54" fill="white" opacity="0.43"/><circle cx="247.4" cy="347.8" r="7.22" fill="url(#glow)" opacity="0.35"/><circle cx="247.4" cy="347.8" r="1.52" fill="white" opacity="0.35"/><circle cx="379.5" cy="207.6" r="3.73" fill="url(#glow)" opacity="0.36"/><circle cx="379.5" cy="207.6" r="1.14" fill="white" opacity="0.36"/><circle cx="597.4" cy="341.3" r="4.62" fill="url(#glow)" opacity="0.48"/><circle cx="597.4" cy="341.3" r="1.21" fill="white" opacity="0.48"/><circle cx="367.1" cy="64.0" r="3.01" fill="url(#glow)" opacity="0.48"/><circle cx="367.1" cy="64.0" r="0.87" fill="white" opacity="0.48"/><circle cx="469.6" cy="577.1" r="5.18" fill="url(#glow)" opacity="0.35"/><circle cx="469.6" cy="577.1" r="1.35" fill="white" opacity="0.35"/><circle cx="412.9" cy="180.5" r="2.64" fill="url(#glow)" opacity="0.38"/><circle cx="412.9" cy="180.5" r="0.66" fill="white" opacity="0.38"/><circle cx="595.3" cy="538.7" r="4.46" fill="url(#glow)" opacity="0.47"/><circle cx="595.3" cy="538.7" r="0.92" fill="white" opacity="0.47"/><circle cx="186.6" cy="293.3" r="2.29" fill="url(#glow)" opacity="0.52"/><circle cx="186.6" cy="293.3" r="0.51" fill="white" opacity="0.52"/><circle cx="407.3" cy="65.9" r="2.34" fill="url(#glow)" opacity="0.54"/><circle cx="407.3" cy="65.9" r="0.53" fill="white" opacity="0.54"/><circle cx="330.5" cy="207.5" r="2.55" fill="url(#glow)" opacity="0.51"/><circle cx="330.5" cy="207.5" r="0.83" fill="white" opacity="0.51"/><circle cx="158.9" cy="486.5" r="4.91" fill="url(#glow)" opacity="0.24"/><circle cx="158.9" cy="486.5" r="1.02" fill="white" opacity="0.24"/><circle cx="133.6" cy="125.9" r="2.51" fill="url(#glow)" opacity="0.50"/><circle cx="133.6" cy="125.9" r="0.70" fill="white" opacity="0.50"/><circle cx="303.3" cy="163.1" r="4.33" fill="url(#glow)" opacity="0.31"/><circle cx="303.3" cy="163.1" r="1.09" fill="white" opacity="0.31"/><circle cx="166.9" cy="158.4" r="3.27" fill="url(#glow)" opacity="0.36"/><circle cx="166.9" cy="158.4" r="0.90" fill="white" opacity="0.36"/><circle cx="1.7" cy="433.4" r="2.09" fill="url(#glow)" opacity="0.26"/><circle cx="1.7" cy="433.4" r="0.65" fill="white" opacity="0.26"/><circle cx="366.6" cy="110.6" r="2.54" fill="url(#glow)" opacity="0.40"/><circle cx="366.6" cy="110.6" r="0.56" fill="white" opacity="0.40"/><circle cx="394.9" cy="19.6" r="4.04" fill="url(#glow)" opacity="0.53"/><circle cx="394.9" cy="19.6" r="1.23" fill="white" opacity="0.53"/><circle cx="516.6" cy="12.1" r="2.40" fill="url(#glow)" opacity="0.24"/><circle cx="516.6" cy="12.1" r="0.58" fill="white" opacity="0.24"/><circle cx="424.5" cy="453.5" r="5.55" fill="url(#glow)" opacity="0.26"/><circle cx="424.5" cy="453.5" r="1.27" fill="white" opacity="0.26"/><circle cx="190.7" cy="411.0" r="1.71" fill="url(#glow)" opacity="0.48"/><circle cx="190.7" cy="411.0" r="0.51" fill="white" opacity="0.48"/><circle cx="277.3" cy="137.3" r="4.24" fill="url(#glow)" opacity="0.38"/><circle cx="277.3" cy="137.3" r="0.88" fill="white" opacity="0.38"/><circle cx="569.7" cy="350.1" r="4.40" fill="url(#glow)" opacity="0.54"/><circle cx="569.7" cy="350.1" r="0.96" fill="white" opacity="0.54"/><circle cx="359.3" cy="372.6" r="2.82" fill="url(#glow)" opacity="0.38"/><circle cx="359.3" cy="372.6" r="0.80" fill="white" opacity="0.38"/><circle cx="319.0" cy="514.2" r="2.77" fill="url(#glow)" opacity="0.39"/><circle cx="319.0" cy="514.2" r="0.72" fill="white" opacity="0.39"/><circle cx="246.7" cy="217.3" r="4.41" fill="url(#glow)" opacity="0.45"/><circle cx="246.7" cy="217.3" r="1.06" fill="white" opacity="0.45"/><circle cx="340.5" cy="289.5" r="5.49" fill="url(#glow)" opacity="0.43"/><circle cx="340.5" cy="289.5" r="1.30" fill="white" opacity="0.43"/><circle cx="558.8" cy="196.7" r="4.56" fill="url(#glow)" opacity="0.52"/><circle cx="558.8" cy="196.7" r="1.34" fill="white" opacity="0.52"/><circle cx="204.2" cy="461.0" r="4.46" fill="url(#glow)" opacity="0.47"/><circle cx="204.2" cy="461.0" r="0.97" fill="white" opacity="0.47"/><circle cx="244.5" cy="356.9" r="3.71" fill="url(#glow)" opacity="0.29"/><circle cx="244.5" cy="356.9" r="0.85" fill="white" opacity="0.29"/><circle cx="87.3" cy="285.5" r="5.43" fill="url(#glow)" opacity="0.39"/><circle cx="87.3" cy="285.5" r="1.24" fill="white" opacity="0.39"/><circle cx="474.9" cy="342.1" r="4.07" fill="url(#glow)" opacity="0.47"/><circle cx="474.9" cy="342.1" r="1.33" fill="white" opacity="0.47"/><circle cx="393.7" cy="578.8" r="4.16" fill="url(#glow)" opacity="0.27"/><circle cx="393.7" cy="578.8" r="0.93" fill="white" opacity="0.27"/><circle cx="433.8" cy="243.3" r="2.03" fill="url(#glow)" opacity="0.31"/><circle cx="433.8" cy="243.3" r="0.51" fill="white" opacity="0.31"/><circle cx="4.8" cy="257.7" r="3.13" fill="url(#glow)" opacity="0.26"/><circle cx="4.8" cy="257.7" r="0.74" fill="white" opacity="0.26"/><circle cx="590.4" cy="209.1" r="5.74" fill="url(#glow)" opacity="0.47"/><circle cx="590.4" cy="209.1" r="1.30" fill="white" opacity="0.47"/><circle cx="426.3" cy="49.4" r="4.66" fill="url(#glow)" opacity="0.37"/><circle cx="426.3" cy="49.4" r="0.95" fill="white" opacity="0.37"/><circle cx="195.2" cy="504.6" r="4.33" fill="url(#glow)" opacity="0.31"/><circle cx="195.2" cy="504.6" r="1.08" fill="white" opacity="0.31"/><circle cx="441.8" cy="418.3" r="7.91" fill="url(#glow)" opacity="0.21"/><circle cx="441.8" cy="418.3" r="1.59" fill="white" opacity="0.21"/><circle cx="133.4" cy="517.7" r="5.66" fill="url(#glow)" opacity="0.32"/><circle cx="133.4" cy="517.7" r="1.53" fill="white" opacity="0.32"/><circle cx="518.6" cy="534.2" r="3.83" fill="url(#glow)" opacity="0.32"/><circle cx="518.6" cy="534.2" r="1.04" fill="white" opacity="0.32"/><circle cx="160.6" cy="494.7" r="2.09" fill="url(#glow)" opacity="0.27"/><circle cx="160.6" cy="494.7" r="0.58" fill="white" opacity="0.27"/><circle cx="134.3" cy="110.7" r="3.68" fill="url(#glow)" opacity="0.38"/><circle cx="134.3" cy="110.7" r="0.98" fill="white" opacity="0.38"/><circle cx="153.5" cy="161.9" r="3.87" fill="url(#glow)" opacity="0.33"/><circle cx="153.5" cy="161.9" r="0.91" fill="white" opacity="0.33"/><circle cx="149.2" cy="228.1" r="5.08" fill="url(#glow)" opacity="0.26"/><circle cx="149.2" cy="228.1" r="1.26" fill="white" opacity="0.26"/><circle cx="44.0" cy="446.1" r="2.97" fill="url(#glow)" opacity="0.42"/><circle cx="44.0" cy="446.1" r="0.75" fill="white" opacity="0.42"/><circle cx="138.9" cy="426.2" r="3.51" fill="url(#glow)" opacity="0.25"/><circle cx="138.9" cy="426.2" r="1.12" fill="white" opacity="0.25"/><circle cx="559.0" cy="328.5" r="2.14" fill="url(#glow)" opacity="0.46"/><circle cx="559.0" cy="328.5" r="0.54" fill="white" opacity="0.46"/><circle cx="185.5" cy="124.5" r="6.42" fill="url(#glow)" opacity="0.35"/><circle cx="185.5" cy="124.5" r="1.50" fill="white" opacity="0.35"/><circle cx="380.3" cy="576.9" r="3.73" fill="url(#glow)" opacity="0.40"/><circle cx="380.3" cy="576.9" r="0.77" fill="white" opacity="0.40"/><circle cx="371.1" cy="361.4" r="6.55" fill="url(#glow)" opacity="0.45"/><circle cx="371.1" cy="361.4" r="1.59" fill="white" opacity="0.45"/><circle cx="398.2" cy="71.3" r="7.49" fill="url(#glow)" opacity="0.42"/><circle cx="398.2" cy="71.3" r="1.54" fill="white" opacity="0.42"/><circle cx="522.9" cy="507.8" r="3.55" fill="url(#glow)" opacity="0.33"/><circle cx="522.9" cy="507.8" r="1.05" fill="white" opacity="0.33"/><circle cx="474.2" cy="578.1" r="2.36" fill="url(#glow)" opacity="0.29"/><circle cx="474.2" cy="578.1" r="0.57" fill="white" opacity="0.29"/><circle cx="433.3" cy="559.5" r="2.48" fill="url(#glow)" opacity="0.26"/><circle cx="433.3" cy="559.5" r="0.53" fill="white" opacity="0.26"/><circle cx="464.0" cy="177.7" r="3.80" fill="url(#glow)" opacity="0.24"/><circle cx="464.0" cy="177.7" r="0.81" fill="white" opacity="0.24"/><circle cx="438.7" cy="447.4" r="5.49" fill="url(#glow)" opacity="0.51"/><circle cx="438.7" cy="447.4" r="1.31" fill="white" opacity="0.51"/><circle cx="441.9" cy="163.1" r="4.40" fill="url(#glow)" opacity="0.35"/><circle cx="441.9" cy="163.1" r="1.40" fill="white" opacity="0.35"/><circle cx="189.7" cy="326.8" r="3.97" fill="url(#glow)" opacity="0.25"/><circle cx="189.7" cy="326.8" r="1.08" fill="white" opacity="0.25"/><circle cx="414.9" cy="93.5" r="3.68" fill="url(#glow)" opacity="0.45"/><circle cx="414.9" cy="93.5" r="0.79" fill="white" opacity="0.45"/><circle cx="78.8" cy="67.4" r="4.62" fill="url(#glow)" opacity="0.44"/><circle cx="78.8" cy="67.4" r="1.23" fill="white" opacity="0.44"/><circle cx="413.7" cy="126.8" r="3.51" fill="url(#glow)" opacity="0.45"/><circle cx="413.7" cy="126.8" r="0.96" fill="white" opacity="0.45"/><circle cx="44.6" cy="538.2" r="4.82" fill="url(#glow)" opacity="0.41"/><circle cx="44.6" cy="538.2" r="1.24" fill="white" opacity="0.41"/><circle cx="76.0" cy="145.7" r="4.96" fill="url(#glow)" opacity="0.40"/><circle cx="76.0" cy="145.7" r="1.57" fill="white" opacity="0.40"/><circle cx="114.6" cy="329.8" r="5.73" fill="url(#glow)" opacity="0.32"/><circle cx="114.6" cy="329.8" r="1.50" fill="white" opacity="0.32"/><circle cx="87.2" cy="249.9" r="2.73" fill="url(#glow)" opacity="0.39"/><circle cx="87.2" cy="249.9" r="0.58" fill="white" opacity="0.39"/><circle cx="248.2" cy="41.8" r="3.51" fill="url(#glow)" opacity="0.38"/><circle cx="248.2" cy="41.8" r="0.93" fill="white" opacity="0.38"/><circle cx="49.8" cy="325.3" r="4.49" fill="url(#glow)" opacity="0.38"/><circle cx="49.8" cy="325.3" r="1.20" fill="white" opacity="0.38"/><circle cx="512.3" cy="454.9" r="3.32" fill="url(#glow)" opacity="0.41"/><circle cx="512.3" cy="454.9" r="0.83" fill="white" opacity="0.41"/><circle cx="354.9" cy="117.4" r="2.73" fill="url(#glow)" opacity="0.32"/><circle cx="354.9" cy="117.4" r="0.72" fill="white" opacity="0.32"/><circle cx="65.0" cy="59.6" r="6.80" fill="url(#glow)" opacity="0.23"/><circle cx="65.0" cy="59.6" r="1.40" fill="white" opacity="0.23"/><circle cx="562.0" cy="157.0" r="3.87" fill="url(#glow)" opacity="0.41"/><circle cx="562.0" cy="157.0" r="1.02" fill="white" opacity="0.41"/><circle cx="423.6" cy="249.2" r="4.72" fill="url(#glow)" opacity="0.46"/><circle cx="423.6" cy="249.2" r="1.01" fill="white" opacity="0.46"/><circle cx="27.9" cy="532.8" r="4.31" fill="url(#glow)" opacity="0.38"/><circle cx="27.9" cy="532.8" r="1.22" fill="white" opacity="0.38"/><circle cx="474.1" cy="573.6" r="2.36" fill="url(#glow)" opacity="0.38"/><circle cx="474.1" cy="573.6" r="0.55" fill="white" opacity="0.38"/><circle cx="198.0" cy="211.9" r="5.05" fill="url(#glow)" opacity="0.42"/><circle cx="198.0" cy="211.9" r="1.19" fill="white" opacity="0.42"/><circle cx="384.3" cy="401.1" r="4.78" fill="url(#glow)" opacity="0.23"/><circle cx="384.3" cy="401.1" r="1.38" fill="white" opacity="0.23"/><circle cx="571.3" cy="302.6" r="3.87" fill="url(#glow)" opacity="0.23"/><circle cx="571.3" cy="302.6" r="1.15" fill="white" opacity="0.23"/><circle cx="194.8" cy="425.6" r="3.50" fill="url(#glow)" opacity="0.47"/><circle cx="194.8" cy="425.6" r="0.98" fill="white" opacity="0.47"/><circle cx="382.0" cy="599.8" r="4.53" fill="url(#glow)" opacity="0.43"/><circle cx="382.0" cy="599.8" r="0.92" fill="white" opacity="0.43"/><circle cx="270.3" cy="180.8" r="4.67" fill="url(#glow)" opacity="0.21"/><circle cx="270.3" cy="180.8" r="1.40" fill="white" opacity="0.21"/><circle cx="522.2" cy="73.2" r="6.45" fill="url(#glow)" opacity="0.26"/><circle cx="522.2" cy="73.2" r="1.58" fill="white" opacity="0.26"/><circle cx="183.8" cy="426.0" r="7.94" fill="url(#glow)" opacity="0.28"/><circle cx="183.8" cy="426.0" r="1.59" fill="white" opacity="0.28"/><circle cx="568.8" cy="26.1" r="5.11" fill="url(#glow)" opacity="0.28"/><circle cx="568.8" cy="26.1" r="1.16" fill="white" opacity="0.28"/><circle cx="414.2" cy="285.8" r="4.88" fill="url(#glow)" opacity="0.33"/><circle cx="414.2" cy="285.8" r="1.44" fill="white" opacity="0.33"/><circle cx="545.3" cy="351.4" r="5.69" fill="url(#glow)" opacity="0.44"/><circle cx="545.3" cy="351.4" r="1.22" fill="white" opacity="0.44"/><circle cx="570.4" cy="500.5" r="4.69" fill="url(#glow)" opacity="0.23"/><circle cx="570.4" cy="500.5" r="1.51" fill="white" opacity="0.23"/><circle cx="435.1" cy="333.5" r="4.35" fill="url(#glow)" opacity="0.36"/><circle cx="435.1" cy="333.5" r="0.92" fill="white" opacity="0.36"/><circle cx="350.3" cy="555.3" r="4.08" fill="url(#glow)" opacity="0.42"/><circle cx="350.3" cy="555.3" r="1.16" fill="white" opacity="0.42"/><circle cx="295.6" cy="267.2" r="4.11" fill="url(#glow)" opacity="0.30"/><circle cx="295.6" cy="267.2" r="1.24" fill="white" opacity="0.30"/><circle cx="513.5" cy="435.6" r="7.50" fill="url(#glow)" opacity="0.53"/><circle cx="513.5" cy="435.6" r="1.52" fill="white" opacity="0.53"/><circle cx="204.9" cy="557.2" r="6.25" fill="url(#glow)" opacity="0.44"/><circle cx="204.9" cy="557.2" r="1.53" fill="white" opacity="0.44"/><circle cx="400.6" cy="300.5" r="5.19" fill="url(#glow)" opacity="0.27"/><circle cx="400.6" cy="300.5" r="1.26" fill="white" opacity="0.27"/><circle cx="570.4" cy="183.7" r="3.23" fill="url(#glow)" opacity="0.50"/><circle cx="570.4" cy="183.7" r="0.76" fill="white" opacity="0.50"/><circle cx="150.5" cy="252.9" r="2.93" fill="url(#glow)" opacity="0.46"/><circle cx="150.5" cy="252.9" r="0.63" fill="white" opacity="0.46"/><circle cx="436.1" cy="27.1" r="3.68" fill="url(#glow)" opacity="0.31"/><circle cx="436.1" cy="27.1" r="1.06" fill="white" opacity="0.31"/><circle cx="523.1" cy="278.8" r="2.13" fill="url(#glow)" opacity="0.43"/><circle cx="523.1" cy="278.8" r="0.57" fill="white" opacity="0.43"/><circle cx="284.2" cy="285.8" r="3.95" fill="url(#glow)" opacity="0.43"/><circle cx="284.2" cy="285.8" r="0.93" fill="white" opacity="0.43"/><circle cx="190.0" cy="417.9" r="3.96" fill="url(#glow)" opacity="0.47"/><circle cx="190.0" cy="417.9" r="1.29" fill="white" opacity="0.47"/><circle cx="556.4" cy="548.2" r="2.16" fill="url(#glow)" opacity="0.26"/><circle cx="556.4" cy="548.2" r="0.54" fill="white" opacity="0.26"/><circle cx="291.8" cy="68.2" r="6.23" fill="url(#glow)" opacity="0.49"/><circle cx="291.8" cy="68.2" r="1.39" fill="white" opacity="0.49"/><circle cx="121.2" cy="552.3" r="6.82" fill="url(#glow)" opacity="0.21"/><circle cx="121.2" cy="552.3" r="1.39" fill="white" opacity="0.21"/><circle cx="271.6" cy="446.9" r="1.98" fill="url(#glow)" opacity="0.26"/><circle cx="271.6" cy="446.9" r="0.59" fill="white" opacity="0.26"/><circle cx="221.6" cy="352.9" r="5.02" fill="url(#glow)" opacity="0.33"/><circle cx="221.6" cy="352.9" r="1.20" fill="white" opacity="0.33"/><circle cx="482.1" cy="407.2" r="4.22" fill="url(#glow)" opacity="0.25"/><circle cx="482.1" cy="407.2" r="0.96" fill="white" opacity="0.25"/><circle cx="133.4" cy="12.5" r="2.93" fill="url(#glow)" opacity="0.22"/><circle cx="133.4" cy="12.5" r="0.66" fill="white" opacity="0.22"/><circle cx="15.3" cy="83.9" r="5.69" fill="url(#glow)" opacity="0.40"/><circle cx="15.3" cy="83.9" r="1.25" fill="white" opacity="0.40"/><circle cx="162.9" cy="7.1" r="5.40" fill="url(#glow)" opacity="0.28"/><circle cx="162.9" cy="7.1" r="1.10" fill="white" opacity="0.28"/><circle cx="393.3" cy="231.7" r="3.02" fill="url(#glow)" opacity="0.38"/><circle cx="393.3" cy="231.7" r="0.61" fill="white" opacity="0.38"/><circle cx="502.4" cy="41.1" r="7.24" fill="url(#glow)" opacity="0.42"/><circle cx="502.4" cy="41.1" r="1.59" fill="white" opacity="0.42"/><circle cx="464.8" cy="114.0" r="4.15" fill="url(#glow)" opacity="0.41"/><circle cx="464.8" cy="114.0" r="1.00" fill="white" opacity="0.41"/><circle cx="324.4" cy="454.7" r="2.88" fill="url(#glow)" opacity="0.45"/><circle cx="324.4" cy="454.7" r="0.69" fill="white" opacity="0.45"/><circle cx="563.4" cy="176.7" r="2.33" fill="url(#glow)" opacity="0.23"/><circle cx="563.4" cy="176.7" r="0.58" fill="white" opacity="0.23"/><circle cx="37.9" cy="143.5" r="3.17" fill="url(#glow)" opacity="0.52"/><circle cx="37.9" cy="143.5" r="0.93" fill="white" opacity="0.52"/><circle cx="301.1" cy="280.4" r="6.41" fill="url(#glow)" opacity="0.36"/><circle cx="301.1" cy="280.4" r="1.59" fill="white" opacity="0.36"/><circle cx="320.5" cy="107.9" r="3.69" fill="url(#glow)" opacity="0.34"/><circle cx="320.5" cy="107.9" r="0.81" fill="white" opacity="0.34"/><circle cx="217.5" cy="92.3" r="3.71" fill="url(#glow)" opacity="0.44"/><circle cx="217.5" cy="92.3" r="1.03" fill="white" opacity="0.44"/><circle cx="270.0" cy="317.2" r="6.18" fill="url(#glow)" opacity="0.29"/><circle cx="270.0" cy="317.2" r="1.49" fill="white" opacity="0.29"/><circle cx="573.1" cy="138.4" r="2.06" fill="url(#glow)" opacity="0.34"/><circle cx="573.1" cy="138.4" r="0.68" fill="white" opacity="0.34"/><circle cx="220.4" cy="72.2" r="5.01" fill="url(#glow)" opacity="0.24"/><circle cx="220.4" cy="72.2" r="1.27" fill="white" opacity="0.24"/><circle cx="580.7" cy="543.3" r="2.13" fill="url(#glow)" opacity="0.24"/><circle cx="580.7" cy="543.3" r="0.70" fill="white" opacity="0.24"/><circle cx="253.4" cy="511.8" r="4.72" fill="url(#glow)" opacity="0.49"/><circle cx="253.4" cy="511.8" r="1.42" fill="white" opacity="0.49"/><circle cx="178.3" cy="465.3" r="5.19" fill="url(#glow)" opacity="0.38"/><circle cx="178.3" cy="465.3" r="1.06" fill="white" opacity="0.38"/><circle cx="75.1" cy="516.2" r="3.73" fill="url(#glow)" opacity="0.43"/><circle cx="75.1" cy="516.2" r="1.02" fill="white" opacity="0.43"/><circle cx="426.3" cy="337.3" r="4.14" fill="url(#glow)" opacity="0.21"/><circle cx="426.3" cy="337.3" r="1.15" fill="white" opacity="0.21"/><circle cx="411.9" cy="537.2" r="2.09" fill="url(#glow)" opacity="0.27"/><circle cx="411.9" cy="537.2" r="0.54" fill="white" opacity="0.27"/><circle cx="558.4" cy="555.9" r="5.46" fill="url(#glow)" opacity="0.47"/><circle cx="558.4" cy="555.9" r="1.21" fill="white" opacity="0.47"/><circle cx="490.2" cy="335.4" r="3.62" fill="url(#glow)" opacity="0.28"/><circle cx="490.2" cy="335.4" r="0.87" fill="white" opacity="0.28"/><circle cx="540.6" cy="284.2" r="3.25" fill="url(#glow)" opacity="0.32"/><circle cx="540.6" cy="284.2" r="0.95" fill="white" opacity="0.32"/><circle cx="8.0" cy="388.6" r="4.35" fill="url(#glow)" opacity="0.39"/><circle cx="8.0" cy="388.6" r="1.04" fill="white" opacity="0.39"/><circle cx="246.9" cy="202.6" r="3.18" fill="url(#glow)" opacity="0.55"/><circle cx="246.9" cy="202.6" r="0.91" fill="white" opacity="0.55"/><circle cx="285.0" cy="154.6" r="4.17" fill="url(#glow)" opacity="0.51"/><circle cx="285.0" cy="154.6" r="1.32" fill="white" opacity="0.51"/><circle cx="310.2" cy="146.5" r="3.63" fill="url(#glow)" opacity="0.53"/><circle cx="310.2" cy="146.5" r="0.78" fill="white" opacity="0.53"/><circle cx="285.1" cy="512.2" r="5.15" fill="url(#glow)" opacity="0.37"/><circle cx="285.1" cy="512.2" r="1.27" fill="white" opacity="0.37"/><circle cx="541.8" cy="248.3" r="4.23" fill="url(#glow)" opacity="0.28"/><circle cx="541.8" cy="248.3" r="0.96" fill="white" opacity="0.28"/><circle cx="52.0" cy="207.6" r="4.80" fill="url(#glow)" opacity="0.40"/><circle cx="52.0" cy="207.6" r="1.46" fill="white" opacity="0.40"/><circle cx="36.2" cy="448.8" r="3.90" fill="url(#glow)" opacity="0.32"/><circle cx="36.2" cy="448.8" r="0.92" fill="white" opacity="0.32"/><circle cx="131.7" cy="46.2" r="2.16" fill="url(#glow)" opacity="0.25"/><circle cx="131.7" cy="46.2" r="0.59" fill="white" opacity="0.25"/><circle cx="81.1" cy="271.5" r="2.41" fill="url(#glow)" opacity="0.35"/><circle cx="81.1" cy="271.5" r="0.79" fill="white" opacity="0.35"/><circle cx="271.1" cy="590.8" r="3.77" fill="url(#glow)" opacity="0.33"/><circle cx="271.1" cy="590.8" r="1.08" fill="white" opacity="0.33"/><circle cx="381.4" cy="194.3" r="6.33" fill="url(#glow)" opacity="0.33"/><circle cx="381.4" cy="194.3" r="1.36" fill="white" opacity="0.33"/><circle cx="455.2" cy="211.8" r="3.00" fill="url(#glow)" opacity="0.44"/><circle cx="455.2" cy="211.8" r="0.82" fill="white" opacity="0.44"/><circle cx="461.4" cy="92.0" r="5.87" fill="url(#glow)" opacity="0.34"/><circle cx="461.4" cy="92.0" r="1.30" fill="white" opacity="0.34"/><circle cx="453.7" cy="446.9" r="2.29" fill="url(#glow)" opacity="0.43"/><circle cx="453.7" cy="446.9" r="0.72" fill="white" opacity="0.43"/><circle cx="384.6" cy="414.1" r="2.17" fill="url(#glow)" opacity="0.44"/><circle cx="384.6" cy="414.1" r="0.70" fill="white" opacity="0.44"/><circle cx="365.0" cy="371.5" r="1.76" fill="url(#glow)" opacity="0.26"/><circle cx="365.0" cy="371.5" r="0.52" fill="white" opacity="0.26"/><circle cx="478.0" cy="463.7" r="3.48" fill="url(#glow)" opacity="0.23"/><circle cx="478.0" cy="463.7" r="0.89" fill="white" opacity="0.23"/><circle cx="208.0" cy="504.6" r="6.74" fill="url(#glow)" opacity="0.37"/><circle cx="208.0" cy="504.6" r="1.51" fill="white" opacity="0.37"/><circle cx="336.3" cy="369.2" r="1.90" fill="url(#glow)" opacity="0.41"/><circle cx="336.3" cy="369.2" r="0.51" fill="white" opacity="0.41"/><circle cx="592.0" cy="12.8" r="4.53" fill="url(#glow)" opacity="0.21"/><circle cx="592.0" cy="12.8" r="1.13" fill="white" opacity="0.21"/><circle cx="229.3" cy="53.5" r="2.45" fill="url(#glow)" opacity="0.42"/><circle cx="229.3" cy="53.5" r="0.79" fill="white" opacity="0.42"/><circle cx="490.8" cy="180.3" r="2.49" fill="url(#glow)" opacity="0.31"/><circle cx="490.8" cy="180.3" r="0.75" fill="white" opacity="0.31"/><circle cx="202.1" cy="424.6" r="2.80" fill="url(#glow)" opacity="0.46"/><circle cx="202.1" cy="424.6" r="0.89" fill="white" opacity="0.46"/><circle cx="573.3" cy="506.7" r="2.36" fill="url(#glow)" opacity="0.38"/><circle cx="573.3" cy="506.7" r="0.78" fill="white" opacity="0.38"/><circle cx="581.6" cy="187.8" r="3.19" fill="url(#glow)" opacity="0.34"/><circle cx="581.6" cy="187.8" r="0.91" fill="white" opacity="0.34"/><circle cx="361.1" cy="336.7" r="3.30" fill="url(#glow)" opacity="0.33"/><circle cx="361.1" cy="336.7" r="0.88" fill="white" opacity="0.33"/><circle cx="45.5" cy="166.3" r="5.19" fill="url(#glow)" opacity="0.32"/><circle cx="45.5" cy="166.3" r="1.15" fill="white" opacity="0.32"/><circle cx="306.8" cy="184.1" r="4.17" fill="url(#glow)" opacity="0.43"/><circle cx="306.8" cy="184.1" r="1.20" fill="white" opacity="0.43"/><circle cx="76.1" cy="401.2" r="6.62" fill="url(#glow)" opacity="0.40"/><circle cx="76.1" cy="401.2" r="1.39" fill="white" opacity="0.40"/><circle cx="485.8" cy="294.5" r="3.28" fill="url(#glow)" opacity="0.32"/><circle cx="485.8" cy="294.5" r="0.72" fill="white" opacity="0.32"/><circle cx="402.8" cy="272.6" r="4.33" fill="url(#glow)" opacity="0.35"/><circle cx="402.8" cy="272.6" r="1.03" fill="white" opacity="0.35"/><circle cx="541.9" cy="399.0" r="4.43" fill="url(#glow)" opacity="0.40"/><circle cx="541.9" cy="399.0" r="1.10" fill="white" opacity="0.40"/><circle cx="282.1" cy="145.0" r="3.43" fill="url(#glow)" opacity="0.23"/><circle cx="282.1" cy="145.0" r="0.79" fill="white" opacity="0.23"/><circle cx="247.8" cy="29.4" r="2.66" fill="url(#glow)" opacity="0.51"/><circle cx="247.8" cy="29.4" r="0.63" fill="white" opacity="0.51"/><circle cx="130.0" cy="484.3" r="2.74" fill="url(#glow)" opacity="0.32"/><circle cx="130.0" cy="484.3" r="0.65" fill="white" opacity="0.32"/><path d="M 374.5491252457383 350.63230573882953 Q 375.4667888702704 355.45003976762314 380.28452289906403 356.36770339215525 Q 375.4667888702704 357.28536701668736 374.5491252457383 362.10310104548097 Q 373.6314616212062 357.28536701668736 368.8137275924126 356.36770339215525 Q 373.6314616212062 355.45003976762314 374.5491252457383 350.63230573882953 Z" fill="white" opacity="0.55"/><circle cx="374.5" cy="356.4" r="1.03" fill="white" opacity="0.72"/><path d="M 162.86910190610732 80.26106835117974 Q 163.78344538134053 85.06137159615406 168.58374862631482 85.97571507138726 Q 163.78344538134053 86.89005854662045 162.86910190610732 91.69036179159477 Q 161.9547584308741 86.89005854662045 157.15445518589982 85.97571507138726 Q 161.9547584308741 85.06137159615406 162.86910190610732 80.26106835117974 Z" fill="white" opacity="0.51"/><circle cx="162.9" cy="86.0" r="1.03" fill="white" opacity="0.66"/><path d="M 203.2487993057182 491.5045537448491 Q 203.8237573918789 494.52308369719276 206.8422873442225 495.09804178335344 Q 203.8237573918789 495.6729998695141 203.2487993057182 498.6915298218578 Q 202.6738412195575 495.6729998695141 199.65531126721388 495.09804178335344 Q 202.6738412195575 494.52308369719276 203.2487993057182 491.5045537448491 Z" fill="white" opacity="0.54"/><path d="M 357.11755446319944 344.8869271248572 Q 358.0370328897924 349.71418886447015 362.8642946294053 350.6336672910631 Q 358.0370328897924 351.55314571765604 357.11755446319944 356.380407457269 Q 356.1980760366065 351.55314571765604 351.37081429699356 350.6336672910631 Q 356.1980760366065 349.71418886447015 357.11755446319944 344.8869271248572 Z" fill="white" opacity="0.52"/><circle cx="357.1" cy="350.6" r="1.03" fill="white" opacity="0.68"/><path d="M 307.82153257865104 351.09779838769595 Q 308.46405877305676 354.47106090832585 311.83732129368667 355.11358710273157 Q 308.46405877305676 355.7561132971373 307.82153257865104 359.1293758177672 Q 307.1790063842453 355.7561132971373 303.8057438636154 355.11358710273157 Q 307.1790063842453 354.47106090832585 307.82153257865104 351.09779838769595 Z" fill="white" opacity="0.30"/><path d="M 73.65484528967524 495.1742161503093 Q 74.13665839959744 497.70373497740087 76.666177226689 498.18554808732307 Q 74.13665839959744 498.66736119724527 73.65484528967524 501.19688002433685 Q 73.17303217975304 498.66736119724527 70.64351335266147 498.18554808732307 Q 73.17303217975304 497.70373497740087 73.65484528967524 495.1742161503093 Z" fill="white" opacity="0.33"/><path d="M 232.45698850298535 423.10533394238956 Q 233.5061559238015 428.61346290167427 239.01428488308613 429.6626303224904 Q 233.5061559238015 430.7117977433065 232.45698850298535 436.2199267025912 Q 231.40782108216922 430.7117977433065 225.89969212288457 429.6626303224904 Q 231.40782108216922 428.61346290167427 232.45698850298535 423.10533394238956 Z" fill="white" opacity="0.34"/><circle cx="232.5" cy="429.7" r="1.18" fill="white" opacity="0.44"/><path d="M 315.3933976656336 587.1121930338373 Q 316.02950524534833 590.4517578273399 319.3690700388509 591.0878654070547 Q 316.02950524534833 591.7239729867695 315.3933976656336 595.063537780272 Q 314.75729008591884 591.7239729867695 311.41772529241626 591.0878654070547 Q 314.75729008591884 590.4517578273399 315.3933976656336 587.1121930338373 Z" fill="white" opacity="0.43"/><path d="M 259.7504740978338 460.6185212443654 Q 260.33955296390445 463.7111852912365 263.43221701077556 464.3002641573072 Q 260.33955296390445 464.8893430233779 259.7504740978338 467.982007070249 Q 259.1613952317631 464.8893430233779 256.068731184892 464.3002641573072 Q 259.1613952317631 463.7111852912365 259.7504740978338 460.6185212443654 Z" fill="white" opacity="0.45"/><path d="M 229.55523644257178 543.908287906072 Q 230.30580925031728 547.8487951467358 234.2463164909811 548.5993679544813 Q 230.30580925031728 549.3499407622268 229.55523644257178 553.2904480028906 Q 228.80466363482628 549.3499407622268 224.86415639416248 548.5993679544813 Q 228.80466363482628 547.8487951467358 229.55523644257178 543.908287906072 Z" fill="white" opacity="0.38"/><path d="M 463.16413788563756 481.9458862789889 Q 463.8904544451131 485.75904821623556 467.70361638235977 486.4853647757111 Q 463.8904544451131 487.21168133518665 463.16413788563756 491.0248432724333 Q 462.437821326162 487.21168133518665 458.62465938891535 486.4853647757111 Q 462.437821326162 485.75904821623556 463.16413788563756 481.9458862789889 Z" fill="white" opacity="0.38"/><path d="M 9.285534582482025 530.5790690080504 Q 10.253357087756529 535.6601371607416 15.334425240447668 536.6279596660161 Q 10.253357087756529 537.5957821712906 9.285534582482025 542.6768503239817 Q 8.317712077207522 537.5957821712906 3.2366439245163825 536.6279596660161 Q 8.317712077207522 535.6601371607416 9.285534582482025 530.5790690080504 Z" fill="white" opacity="0.40"/><circle cx="9.3" cy="536.6" r="1.09" fill="white" opacity="0.52"/><path d="M 508.67646902060744 322.24803907668013 Q 509.65150637219017 327.3669851724896 514.7704524679996 328.3420225240723 Q 509.65150637219017 329.31705987565505 508.67646902060744 334.4360059714645 Q 507.7014316690247 329.31705987565505 502.58248557321525 328.3420225240723 Q 507.7014316690247 327.3669851724896 508.67646902060744 322.24803907668013 Z" fill="white" opacity="0.41"/><circle cx="508.7" cy="328.3" r="1.10" fill="white" opacity="0.53"/><path d="M 285.62516068845235 215.39859554149683 Q 286.3084477717224 218.98585272866464 289.8957049588902 219.66913981193468 Q 286.3084477717224 220.35242689520473 285.62516068845235 223.93968408237254 Q 284.9418736051823 220.35242689520473 281.35461641801453 219.66913981193468 Q 284.9418736051823 218.98585272866464 285.62516068845235 215.39859554149683 Z" fill="white" opacity="0.37"/><path d="M 63.590744601602566 116.49012019416205 Q 64.35284683128452 120.49115689999228 68.35388353711475 121.25325912967423 Q 64.35284683128452 122.01536135935619 63.590744601602566 126.01639806518642 Q 62.828642371920616 122.01536135935619 58.82760566609037 121.25325912967423 Q 62.828642371920616 120.49115689999228 63.590744601602566 116.49012019416205 Z" fill="white" opacity="0.32"/><path d="M 552.3739496018158 129.60516449414303 Q 553.2357038507107 134.12937430084176 557.7599136574095 134.99112854973677 Q 553.2357038507107 135.85288279863178 552.3739496018158 140.37709260533052 Q 551.5121953529208 135.85288279863178 546.987985546222 134.99112854973677 Q 551.5121953529208 134.12937430084176 552.3739496018158 129.60516449414303 Z" fill="white" opacity="0.39"/><path d="M 546.6982174333725 554.4127919233034 Q 547.7944557557117 560.1680431155846 553.549706947993 561.2642814379238 Q 547.7944557557117 562.3605197602631 546.6982174333725 568.1157709525443 Q 545.6019791110333 562.3605197602631 539.8467279187521 561.2642814379238 Q 545.6019791110333 560.1680431155846 546.6982174333725 554.4127919233034 Z" fill="white" opacity="0.47"/><circle cx="546.7" cy="561.3" r="1.23" fill="white" opacity="0.61"/><path d="M 595.795778693233 3.6337242719809915 Q 596.7576677488747 8.683641814099904 601.8075852909936 9.645530869741602 Q 596.7576677488747 10.6074199253833 595.795778693233 15.657337467502213 Q 594.8338896375914 10.6074199253833 589.7839720954724 9.645530869741602 Q 594.8338896375914 8.683641814099904 595.795778693233 3.6337242719809915 Z" fill="white" opacity="0.53"/><circle cx="595.8" cy="9.6" r="1.08" fill="white" opacity="0.69"/><path d="M 337.8543893599826 60.05154103505093 Q 338.4235726072692 63.03975308330558 341.41178465552383 63.60893633059217 Q 338.4235726072692 64.17811957787877 337.8543893599826 67.16633162613341 Q 337.28520611269596 64.17811957787877 334.2969940644413 63.60893633059217 Q 337.28520611269596 63.03975308330558 337.8543893599826 60.05154103505093 Z" fill="white" opacity="0.38"/><path d="M 121.07192944910501 36.022195120867316 Q 122.07437077469702 41.28501208022534 127.33718773405505 42.287453405817345 Q 122.07437077469702 43.28989473140935 121.07192944910501 48.552711690767374 Q 120.06948812351301 43.28989473140935 114.80667116415498 42.287453405817345 Q 120.06948812351301 41.28501208022534 121.07192944910501 36.022195120867316 Z" fill="white" opacity="0.47"/><circle cx="121.1" cy="42.3" r="1.13" fill="white" opacity="0.61"/><path d="M 214.87327522346175 283.4303312351026 Q 215.387232832537 286.12860868274765 218.08551028018206 286.6425662918229 Q 215.387232832537 287.15652390089815 214.87327522346175 289.8548013485432 Q 214.3593176143865 287.15652390089815 211.66104016674143 286.6425662918229 Q 214.3593176143865 286.12860868274765 214.87327522346175 283.4303312351026 Z" fill="white" opacity="0.39"/><path d="M 82.16868230286633 144.8792461917588 Q 83.12991236245158 149.92570400458132 88.1763701752741 150.88693406416655 Q 83.12991236245158 151.8481641237518 82.16868230286633 156.8946219365743 Q 81.20745224328108 151.8481641237518 76.16099443045856 150.88693406416655 Q 81.20745224328108 149.92570400458132 82.16868230286633 144.8792461917588 Z" fill="white" opacity="0.30"/><circle cx="82.2" cy="150.9" r="1.08" fill="white" opacity="0.39"/><path d="M 32.373677098949294 317.97612536184226 Q 33.273229339344155 322.6987746239153 37.995878601417196 323.5983268643102 Q 33.273229339344155 324.4978791047051 32.373677098949294 329.2205283667781 Q 31.47412485855443 324.4978791047051 26.75147559648139 323.5983268643102 Q 31.47412485855443 322.6987746239153 32.373677098949294 317.97612536184226 Z" fill="white" opacity="0.38"/><circle cx="32.4" cy="323.6" r="1.01" fill="white" opacity="0.49"/><path d="M 322.81174985048557 328.3774983966889 Q 323.8061167474657 333.5979246058344 329.0265429566112 334.59229150281453 Q 323.8061167474657 335.58665839979466 322.81174985048557 340.80708460894016 Q 321.81738295350544 335.58665839979466 316.59695674435994 334.59229150281453 Q 321.81738295350544 333.5979246058344 322.81174985048557 328.3774983966889 Z" fill="white" opacity="0.41"/><circle cx="322.8" cy="334.6" r="1.12" fill="white" opacity="0.53"/><path d="M 284.11086382594317 261.7469847540875 Q 284.7657908357857 265.1853515557607 288.2041576374589 265.8402785656032 Q 284.7657908357857 266.49520557544577 284.11086382594317 269.93357237711894 Q 283.45593681610063 266.49520557544577 280.01757001442746 265.8402785656032 Q 283.45593681610063 265.1853515557607 284.11086382594317 261.7469847540875 Z" fill="white" opacity="0.41"/><path d="M 204.16062368206335 204.87985240433656 Q 204.9003300581389 208.76331087873328 208.78378853253562 209.50301725480884 Q 204.9003300581389 210.2427236308844 204.16062368206335 214.12618210528112 Q 203.42091730598779 210.2427236308844 199.53745883159107 209.50301725480884 Q 203.42091730598779 208.76331087873328 204.16062368206335 204.87985240433656 Z" fill="white" opacity="0.54"/></svg>